<?xml version="1.0" encoding="utf-8" standalone="no"?>
<!DOCTYPE svg PUBLIC "-//W3C//DTD SVG 1.1//EN"
  "http://www.w3.org/Graphics/SVG/1.1/DTD/svg11.dtd">
<svg xmlns:xlink="http://www.w3.org/1999/xlink" width="427.903125pt" height="308.278125pt" viewBox="0 0 427.903125 308.278125" xmlns="http://www.w3.org/2000/svg" version="1.1">
 <metadata>
  <rdf:RDF xmlns:dc="http://purl.org/dc/elements/1.1/" xmlns:cc="http://creativecommons.org/ns#" xmlns:rdf="http://www.w3.org/1999/02/22-rdf-syntax-ns#">
   <cc:Work>
    <dc:type rdf:resource="http://purl.org/dc/dcmitype/StillImage"/>
    <dc:date>2024-10-16T16:38:44.209788</dc:date>
    <dc:format>image/svg+xml</dc:format>
    <dc:creator>
     <cc:Agent>
      <dc:title>Matplotlib v3.9.2, https://matplotlib.org/</dc:title>
     </cc:Agent>
    </dc:creator>
   </cc:Work>
  </rdf:RDF>
 </metadata>
 <defs>
  <style type="text/css">*{stroke-linejoin: round; stroke-linecap: butt}</style>
 </defs>
 <g id="figure_1">
  <g id="patch_1">
   <path d="M 0 308.278125 
L 427.903125 308.278125 
L 427.903125 0 
L 0 0 
z
" style="fill: #ffffff"/>
  </g>
  <g id="axes_1">
   <g id="patch_2">
    <path d="M 30.103125 284.4 
L 420.703125 284.4 
L 420.703125 7.2 
L 30.103125 7.2 
z
" style="fill: #ffffff"/>
   </g>
   <g id="matplotlib.axis_1">
    <g id="xtick_1">
     <g id="line2d_1">
      <defs>
       <path id="ma081e5e469" d="M 0 0 
L 0 3.5 
" style="stroke: #000000; stroke-width: 0.8"/>
      </defs>
      <g>
       <use xlink:href="#ma081e5e469" x="42.114823" y="284.4" style="stroke: #000000; stroke-width: 0.8"/>
      </g>
     </g>
     <g id="text_1">
      <!-- 0 -->
      <g transform="translate(38.933573 298.998438) scale(0.1 -0.1)">
       <defs>
        <path id="DejaVuSans-30" d="M 2034 4250 
Q 1547 4250 1301 3770 
Q 1056 3291 1056 2328 
Q 1056 1369 1301 889 
Q 1547 409 2034 409 
Q 2525 409 2770 889 
Q 3016 1369 3016 2328 
Q 3016 3291 2770 3770 
Q 2525 4250 2034 4250 
z
M 2034 4750 
Q 2819 4750 3233 4129 
Q 3647 3509 3647 2328 
Q 3647 1150 3233 529 
Q 2819 -91 2034 -91 
Q 1250 -91 836 529 
Q 422 1150 422 2328 
Q 422 3509 836 4129 
Q 1250 4750 2034 4750 
z
" transform="scale(0.015625)"/>
       </defs>
       <use xlink:href="#DejaVuSans-30"/>
      </g>
     </g>
    </g>
    <g id="xtick_2">
     <g id="line2d_2">
      <g>
       <use xlink:href="#ma081e5e469" x="99.543299" y="284.4" style="stroke: #000000; stroke-width: 0.8"/>
      </g>
     </g>
     <g id="text_2">
      <!-- 1 -->
      <g transform="translate(96.362049 298.998438) scale(0.1 -0.1)">
       <defs>
        <path id="DejaVuSans-31" d="M 794 531 
L 1825 531 
L 1825 4091 
L 703 3866 
L 703 4441 
L 1819 4666 
L 2450 4666 
L 2450 531 
L 3481 531 
L 3481 0 
L 794 0 
L 794 531 
z
" transform="scale(0.015625)"/>
       </defs>
       <use xlink:href="#DejaVuSans-31"/>
      </g>
     </g>
    </g>
    <g id="xtick_3">
     <g id="line2d_3">
      <g>
       <use xlink:href="#ma081e5e469" x="156.971775" y="284.4" style="stroke: #000000; stroke-width: 0.8"/>
      </g>
     </g>
     <g id="text_3">
      <!-- 2 -->
      <g transform="translate(153.790525 298.998438) scale(0.1 -0.1)">
       <defs>
        <path id="DejaVuSans-32" d="M 1228 531 
L 3431 531 
L 3431 0 
L 469 0 
L 469 531 
Q 828 903 1448 1529 
Q 2069 2156 2228 2338 
Q 2531 2678 2651 2914 
Q 2772 3150 2772 3378 
Q 2772 3750 2511 3984 
Q 2250 4219 1831 4219 
Q 1534 4219 1204 4116 
Q 875 4013 500 3803 
L 500 4441 
Q 881 4594 1212 4672 
Q 1544 4750 1819 4750 
Q 2544 4750 2975 4387 
Q 3406 4025 3406 3419 
Q 3406 3131 3298 2873 
Q 3191 2616 2906 2266 
Q 2828 2175 2409 1742 
Q 1991 1309 1228 531 
z
" transform="scale(0.015625)"/>
       </defs>
       <use xlink:href="#DejaVuSans-32"/>
      </g>
     </g>
    </g>
    <g id="xtick_4">
     <g id="line2d_4">
      <g>
       <use xlink:href="#ma081e5e469" x="214.400251" y="284.4" style="stroke: #000000; stroke-width: 0.8"/>
      </g>
     </g>
     <g id="text_4">
      <!-- 3 -->
      <g transform="translate(211.219001 298.998438) scale(0.1 -0.1)">
       <defs>
        <path id="DejaVuSans-33" d="M 2597 2516 
Q 3050 2419 3304 2112 
Q 3559 1806 3559 1356 
Q 3559 666 3084 287 
Q 2609 -91 1734 -91 
Q 1441 -91 1130 -33 
Q 819 25 488 141 
L 488 750 
Q 750 597 1062 519 
Q 1375 441 1716 441 
Q 2309 441 2620 675 
Q 2931 909 2931 1356 
Q 2931 1769 2642 2001 
Q 2353 2234 1838 2234 
L 1294 2234 
L 1294 2753 
L 1863 2753 
Q 2328 2753 2575 2939 
Q 2822 3125 2822 3475 
Q 2822 3834 2567 4026 
Q 2313 4219 1838 4219 
Q 1578 4219 1281 4162 
Q 984 4106 628 3988 
L 628 4550 
Q 988 4650 1302 4700 
Q 1616 4750 1894 4750 
Q 2613 4750 3031 4423 
Q 3450 4097 3450 3541 
Q 3450 3153 3228 2886 
Q 3006 2619 2597 2516 
z
" transform="scale(0.015625)"/>
       </defs>
       <use xlink:href="#DejaVuSans-33"/>
      </g>
     </g>
    </g>
    <g id="xtick_5">
     <g id="line2d_5">
      <g>
       <use xlink:href="#ma081e5e469" x="271.828727" y="284.4" style="stroke: #000000; stroke-width: 0.8"/>
      </g>
     </g>
     <g id="text_5">
      <!-- 4 -->
      <g transform="translate(268.647477 298.998438) scale(0.1 -0.1)">
       <defs>
        <path id="DejaVuSans-34" d="M 2419 4116 
L 825 1625 
L 2419 1625 
L 2419 4116 
z
M 2253 4666 
L 3047 4666 
L 3047 1625 
L 3713 1625 
L 3713 1100 
L 3047 1100 
L 3047 0 
L 2419 0 
L 2419 1100 
L 313 1100 
L 313 1709 
L 2253 4666 
z
" transform="scale(0.015625)"/>
       </defs>
       <use xlink:href="#DejaVuSans-34"/>
      </g>
     </g>
    </g>
    <g id="xtick_6">
     <g id="line2d_6">
      <g>
       <use xlink:href="#ma081e5e469" x="329.257203" y="284.4" style="stroke: #000000; stroke-width: 0.8"/>
      </g>
     </g>
     <g id="text_6">
      <!-- 5 -->
      <g transform="translate(326.075953 298.998438) scale(0.1 -0.1)">
       <defs>
        <path id="DejaVuSans-35" d="M 691 4666 
L 3169 4666 
L 3169 4134 
L 1269 4134 
L 1269 2991 
Q 1406 3038 1543 3061 
Q 1681 3084 1819 3084 
Q 2600 3084 3056 2656 
Q 3513 2228 3513 1497 
Q 3513 744 3044 326 
Q 2575 -91 1722 -91 
Q 1428 -91 1123 -41 
Q 819 9 494 109 
L 494 744 
Q 775 591 1075 516 
Q 1375 441 1709 441 
Q 2250 441 2565 725 
Q 2881 1009 2881 1497 
Q 2881 1984 2565 2268 
Q 2250 2553 1709 2553 
Q 1456 2553 1204 2497 
Q 953 2441 691 2322 
L 691 4666 
z
" transform="scale(0.015625)"/>
       </defs>
       <use xlink:href="#DejaVuSans-35"/>
      </g>
     </g>
    </g>
    <g id="xtick_7">
     <g id="line2d_7">
      <g>
       <use xlink:href="#ma081e5e469" x="386.685679" y="284.4" style="stroke: #000000; stroke-width: 0.8"/>
      </g>
     </g>
     <g id="text_7">
      <!-- 6 -->
      <g transform="translate(383.504429 298.998438) scale(0.1 -0.1)">
       <defs>
        <path id="DejaVuSans-36" d="M 2113 2584 
Q 1688 2584 1439 2293 
Q 1191 2003 1191 1497 
Q 1191 994 1439 701 
Q 1688 409 2113 409 
Q 2538 409 2786 701 
Q 3034 994 3034 1497 
Q 3034 2003 2786 2293 
Q 2538 2584 2113 2584 
z
M 3366 4563 
L 3366 3988 
Q 3128 4100 2886 4159 
Q 2644 4219 2406 4219 
Q 1781 4219 1451 3797 
Q 1122 3375 1075 2522 
Q 1259 2794 1537 2939 
Q 1816 3084 2150 3084 
Q 2853 3084 3261 2657 
Q 3669 2231 3669 1497 
Q 3669 778 3244 343 
Q 2819 -91 2113 -91 
Q 1303 -91 875 529 
Q 447 1150 447 2328 
Q 447 3434 972 4092 
Q 1497 4750 2381 4750 
Q 2619 4750 2861 4703 
Q 3103 4656 3366 4563 
z
" transform="scale(0.015625)"/>
       </defs>
       <use xlink:href="#DejaVuSans-36"/>
      </g>
     </g>
    </g>
   </g>
   <g id="matplotlib.axis_2">
    <g id="ytick_1">
     <g id="line2d_8">
      <defs>
       <path id="m3d98b9de6f" d="M 0 0 
L -3.5 0 
" style="stroke: #000000; stroke-width: 0.8"/>
      </defs>
      <g>
       <use xlink:href="#m3d98b9de6f" x="30.103125" y="271.8" style="stroke: #000000; stroke-width: 0.8"/>
      </g>
     </g>
     <g id="text_8">
      <!-- 0.0 -->
      <g transform="translate(7.2 275.599219) scale(0.1 -0.1)">
       <defs>
        <path id="DejaVuSans-2e" d="M 684 794 
L 1344 794 
L 1344 0 
L 684 0 
L 684 794 
z
" transform="scale(0.015625)"/>
       </defs>
       <use xlink:href="#DejaVuSans-30"/>
       <use xlink:href="#DejaVuSans-2e" x="63.623047"/>
       <use xlink:href="#DejaVuSans-30" x="95.410156"/>
      </g>
     </g>
    </g>
    <g id="ytick_2">
     <g id="line2d_9">
      <g>
       <use xlink:href="#m3d98b9de6f" x="30.103125" y="225.316701" style="stroke: #000000; stroke-width: 0.8"/>
      </g>
     </g>
     <g id="text_9">
      <!-- 0.5 -->
      <g transform="translate(7.2 229.11592) scale(0.1 -0.1)">
       <use xlink:href="#DejaVuSans-30"/>
       <use xlink:href="#DejaVuSans-2e" x="63.623047"/>
       <use xlink:href="#DejaVuSans-35" x="95.410156"/>
      </g>
     </g>
    </g>
    <g id="ytick_3">
     <g id="line2d_10">
      <g>
       <use xlink:href="#m3d98b9de6f" x="30.103125" y="178.833402" style="stroke: #000000; stroke-width: 0.8"/>
      </g>
     </g>
     <g id="text_10">
      <!-- 1.0 -->
      <g transform="translate(7.2 182.632621) scale(0.1 -0.1)">
       <use xlink:href="#DejaVuSans-31"/>
       <use xlink:href="#DejaVuSans-2e" x="63.623047"/>
       <use xlink:href="#DejaVuSans-30" x="95.410156"/>
      </g>
     </g>
    </g>
    <g id="ytick_4">
     <g id="line2d_11">
      <g>
       <use xlink:href="#m3d98b9de6f" x="30.103125" y="132.350103" style="stroke: #000000; stroke-width: 0.8"/>
      </g>
     </g>
     <g id="text_11">
      <!-- 1.5 -->
      <g transform="translate(7.2 136.149321) scale(0.1 -0.1)">
       <use xlink:href="#DejaVuSans-31"/>
       <use xlink:href="#DejaVuSans-2e" x="63.623047"/>
       <use xlink:href="#DejaVuSans-35" x="95.410156"/>
      </g>
     </g>
    </g>
    <g id="ytick_5">
     <g id="line2d_12">
      <g>
       <use xlink:href="#m3d98b9de6f" x="30.103125" y="85.866804" style="stroke: #000000; stroke-width: 0.8"/>
      </g>
     </g>
     <g id="text_12">
      <!-- 2.0 -->
      <g transform="translate(7.2 89.666022) scale(0.1 -0.1)">
       <use xlink:href="#DejaVuSans-32"/>
       <use xlink:href="#DejaVuSans-2e" x="63.623047"/>
       <use xlink:href="#DejaVuSans-30" x="95.410156"/>
      </g>
     </g>
    </g>
    <g id="ytick_6">
     <g id="line2d_13">
      <g>
       <use xlink:href="#m3d98b9de6f" x="30.103125" y="39.383505" style="stroke: #000000; stroke-width: 0.8"/>
      </g>
     </g>
     <g id="text_13">
      <!-- 2.5 -->
      <g transform="translate(7.2 43.182723) scale(0.1 -0.1)">
       <use xlink:href="#DejaVuSans-32"/>
       <use xlink:href="#DejaVuSans-2e" x="63.623047"/>
       <use xlink:href="#DejaVuSans-35" x="95.410156"/>
      </g>
     </g>
    </g>
   </g>
   <g id="LineCollection_1">
    <path d="M 47.85767 271.8 
L 47.85767 169.073133 
" clip-path="url(#pb3926d2944)" style="fill: none; stroke: #1f77b4; stroke-width: 1.5"/>
    <path d="M 56.734943 271.8 
L 56.734943 152.208845 
" clip-path="url(#pb3926d2944)" style="fill: none; stroke: #1f77b4; stroke-width: 1.5"/>
    <path d="M 65.612216 271.8 
L 65.612216 133.409638 
" clip-path="url(#pb3926d2944)" style="fill: none; stroke: #1f77b4; stroke-width: 1.5"/>
    <path d="M 74.489489 271.8 
L 74.489489 113.167446 
" clip-path="url(#pb3926d2944)" style="fill: none; stroke: #1f77b4; stroke-width: 1.5"/>
    <path d="M 83.366761 271.8 
L 83.366761 92.26685 
" clip-path="url(#pb3926d2944)" style="fill: none; stroke: #1f77b4; stroke-width: 1.5"/>
    <path d="M 92.244034 271.8 
L 92.244034 71.776511 
" clip-path="url(#pb3926d2944)" style="fill: none; stroke: #1f77b4; stroke-width: 1.5"/>
    <path d="M 101.121307 271.8 
L 101.121307 52.982499 
" clip-path="url(#pb3926d2944)" style="fill: none; stroke: #1f77b4; stroke-width: 1.5"/>
    <path d="M 109.99858 271.8 
L 109.99858 37.259554 
" clip-path="url(#pb3926d2944)" style="fill: none; stroke: #1f77b4; stroke-width: 1.5"/>
    <path d="M 118.875852 271.8 
L 118.875852 25.893834 
" clip-path="url(#pb3926d2944)" style="fill: none; stroke: #1f77b4; stroke-width: 1.5"/>
    <path d="M 127.753125 271.8 
L 127.753125 19.889093 
" clip-path="url(#pb3926d2944)" style="fill: none; stroke: #1f77b4; stroke-width: 1.5"/>
    <path d="M 136.630398 271.8 
L 136.630398 19.8 
" clip-path="url(#pb3926d2944)" style="fill: none; stroke: #1f77b4; stroke-width: 1.5"/>
    <path d="M 145.50767 271.8 
L 145.50767 25.634909 
" clip-path="url(#pb3926d2944)" style="fill: none; stroke: #1f77b4; stroke-width: 1.5"/>
    <path d="M 154.384943 271.8 
L 154.384943 36.854371 
" clip-path="url(#pb3926d2944)" style="fill: none; stroke: #1f77b4; stroke-width: 1.5"/>
    <path d="M 163.262216 271.8 
L 163.262216 52.465788 
" clip-path="url(#pb3926d2944)" style="fill: none; stroke: #1f77b4; stroke-width: 1.5"/>
    <path d="M 172.139489 271.8 
L 172.139489 71.188606 
" clip-path="url(#pb3926d2944)" style="fill: none; stroke: #1f77b4; stroke-width: 1.5"/>
    <path d="M 181.016761 271.8 
L 181.016761 91.647985 
" clip-path="url(#pb3926d2944)" style="fill: none; stroke: #1f77b4; stroke-width: 1.5"/>
    <path d="M 189.894034 271.8 
L 189.894034 112.553085 
" clip-path="url(#pb3926d2944)" style="fill: none; stroke: #1f77b4; stroke-width: 1.5"/>
    <path d="M 198.771307 271.8 
L 198.771307 132.827534 
" clip-path="url(#pb3926d2944)" style="fill: none; stroke: #1f77b4; stroke-width: 1.5"/>
    <path d="M 207.64858 271.8 
L 207.64858 151.677957 
" clip-path="url(#pb3926d2944)" style="fill: none; stroke: #1f77b4; stroke-width: 1.5"/>
    <path d="M 216.525852 271.8 
L 216.525852 168.604074 
" clip-path="url(#pb3926d2944)" style="fill: none; stroke: #1f77b4; stroke-width: 1.5"/>
    <path d="M 225.403125 271.8 
L 225.403125 183.365594 
" clip-path="url(#pb3926d2944)" style="fill: none; stroke: #1f77b4; stroke-width: 1.5"/>
    <path d="M 234.280398 271.8 
L 234.280398 195.925194 
" clip-path="url(#pb3926d2944)" style="fill: none; stroke: #1f77b4; stroke-width: 1.5"/>
    <path d="M 243.15767 271.8 
L 243.15767 206.384908 
" clip-path="url(#pb3926d2944)" style="fill: none; stroke: #1f77b4; stroke-width: 1.5"/>
    <path d="M 252.034943 271.8 
L 252.034943 214.927988 
" clip-path="url(#pb3926d2944)" style="fill: none; stroke: #1f77b4; stroke-width: 1.5"/>
    <path d="M 260.912216 271.8 
L 260.912216 221.772486 
" clip-path="url(#pb3926d2944)" style="fill: none; stroke: #1f77b4; stroke-width: 1.5"/>
    <path d="M 269.789489 271.8 
L 269.789489 227.138121 
" clip-path="url(#pb3926d2944)" style="fill: none; stroke: #1f77b4; stroke-width: 1.5"/>
    <path d="M 278.666761 271.8 
L 278.666761 231.225067 
" clip-path="url(#pb3926d2944)" style="fill: none; stroke: #1f77b4; stroke-width: 1.5"/>
    <path d="M 287.544034 271.8 
L 287.544034 234.201951 
" clip-path="url(#pb3926d2944)" style="fill: none; stroke: #1f77b4; stroke-width: 1.5"/>
    <path d="M 296.421307 271.8 
L 296.421307 236.200109 
" clip-path="url(#pb3926d2944)" style="fill: none; stroke: #1f77b4; stroke-width: 1.5"/>
    <path d="M 305.29858 271.8 
L 305.29858 237.311568 
" clip-path="url(#pb3926d2944)" style="fill: none; stroke: #1f77b4; stroke-width: 1.5"/>
    <path d="M 314.175852 271.8 
L 314.175852 237.588811 
" clip-path="url(#pb3926d2944)" style="fill: none; stroke: #1f77b4; stroke-width: 1.5"/>
    <path d="M 323.053125 271.8 
L 323.053125 237.045071 
" clip-path="url(#pb3926d2944)" style="fill: none; stroke: #1f77b4; stroke-width: 1.5"/>
    <path d="M 331.930398 271.8 
L 331.930398 235.654448 
" clip-path="url(#pb3926d2944)" style="fill: none; stroke: #1f77b4; stroke-width: 1.5"/>
    <path d="M 340.80767 271.8 
L 340.80767 233.351695 
" clip-path="url(#pb3926d2944)" style="fill: none; stroke: #1f77b4; stroke-width: 1.5"/>
    <path d="M 349.684943 271.8 
L 349.684943 230.03199 
" clip-path="url(#pb3926d2944)" style="fill: none; stroke: #1f77b4; stroke-width: 1.5"/>
    <path d="M 358.562216 271.8 
L 358.562216 225.551578 
" clip-path="url(#pb3926d2944)" style="fill: none; stroke: #1f77b4; stroke-width: 1.5"/>
    <path d="M 367.439489 271.8 
L 367.439489 219.730756 
" clip-path="url(#pb3926d2944)" style="fill: none; stroke: #1f77b4; stroke-width: 1.5"/>
    <path d="M 376.316761 271.8 
L 376.316761 212.36133 
" clip-path="url(#pb3926d2944)" style="fill: none; stroke: #1f77b4; stroke-width: 1.5"/>
    <path d="M 385.194034 271.8 
L 385.194034 203.221272 
" clip-path="url(#pb3926d2944)" style="fill: none; stroke: #1f77b4; stroke-width: 1.5"/>
    <path d="M 394.071307 271.8 
L 394.071307 192.099528 
" clip-path="url(#pb3926d2944)" style="fill: none; stroke: #1f77b4; stroke-width: 1.5"/>
    <path d="M 402.94858 271.8 
L 402.94858 178.833402 
" clip-path="url(#pb3926d2944)" style="fill: none; stroke: #1f77b4; stroke-width: 1.5"/>
   </g>
   <g id="line2d_14">
    <defs>
     <path id="mf2e2d34520" d="M 0 3 
C 0.795609 3 1.55874 2.683901 2.12132 2.12132 
C 2.683901 1.55874 3 0.795609 3 0 
C 3 -0.795609 2.683901 -1.55874 2.12132 -2.12132 
C 1.55874 -2.683901 0.795609 -3 0 -3 
C -0.795609 -3 -1.55874 -2.683901 -2.12132 -2.12132 
C -2.683901 -1.55874 -3 -0.795609 -3 0 
C -3 0.795609 -2.683901 1.55874 -2.12132 2.12132 
C -1.55874 2.683901 -0.795609 3 0 3 
z
" style="stroke: #1f77b4"/>
    </defs>
    <g clip-path="url(#pb3926d2944)">
     <use xlink:href="#mf2e2d34520" x="47.85767" y="169.073133" style="fill: #1f77b4; stroke: #1f77b4"/>
     <use xlink:href="#mf2e2d34520" x="56.734943" y="152.208845" style="fill: #1f77b4; stroke: #1f77b4"/>
     <use xlink:href="#mf2e2d34520" x="65.612216" y="133.409638" style="fill: #1f77b4; stroke: #1f77b4"/>
     <use xlink:href="#mf2e2d34520" x="74.489489" y="113.167446" style="fill: #1f77b4; stroke: #1f77b4"/>
     <use xlink:href="#mf2e2d34520" x="83.366761" y="92.26685" style="fill: #1f77b4; stroke: #1f77b4"/>
     <use xlink:href="#mf2e2d34520" x="92.244034" y="71.776511" style="fill: #1f77b4; stroke: #1f77b4"/>
     <use xlink:href="#mf2e2d34520" x="101.121307" y="52.982499" style="fill: #1f77b4; stroke: #1f77b4"/>
     <use xlink:href="#mf2e2d34520" x="109.99858" y="37.259554" style="fill: #1f77b4; stroke: #1f77b4"/>
     <use xlink:href="#mf2e2d34520" x="118.875852" y="25.893834" style="fill: #1f77b4; stroke: #1f77b4"/>
     <use xlink:href="#mf2e2d34520" x="127.753125" y="19.889093" style="fill: #1f77b4; stroke: #1f77b4"/>
     <use xlink:href="#mf2e2d34520" x="136.630398" y="19.8" style="fill: #1f77b4; stroke: #1f77b4"/>
     <use xlink:href="#mf2e2d34520" x="145.50767" y="25.634909" style="fill: #1f77b4; stroke: #1f77b4"/>
     <use xlink:href="#mf2e2d34520" x="154.384943" y="36.854371" style="fill: #1f77b4; stroke: #1f77b4"/>
     <use xlink:href="#mf2e2d34520" x="163.262216" y="52.465788" style="fill: #1f77b4; stroke: #1f77b4"/>
     <use xlink:href="#mf2e2d34520" x="172.139489" y="71.188606" style="fill: #1f77b4; stroke: #1f77b4"/>
     <use xlink:href="#mf2e2d34520" x="181.016761" y="91.647985" style="fill: #1f77b4; stroke: #1f77b4"/>
     <use xlink:href="#mf2e2d34520" x="189.894034" y="112.553085" style="fill: #1f77b4; stroke: #1f77b4"/>
     <use xlink:href="#mf2e2d34520" x="198.771307" y="132.827534" style="fill: #1f77b4; stroke: #1f77b4"/>
     <use xlink:href="#mf2e2d34520" x="207.64858" y="151.677957" style="fill: #1f77b4; stroke: #1f77b4"/>
     <use xlink:href="#mf2e2d34520" x="216.525852" y="168.604074" style="fill: #1f77b4; stroke: #1f77b4"/>
     <use xlink:href="#mf2e2d34520" x="225.403125" y="183.365594" style="fill: #1f77b4; stroke: #1f77b4"/>
     <use xlink:href="#mf2e2d34520" x="234.280398" y="195.925194" style="fill: #1f77b4; stroke: #1f77b4"/>
     <use xlink:href="#mf2e2d34520" x="243.15767" y="206.384908" style="fill: #1f77b4; stroke: #1f77b4"/>
     <use xlink:href="#mf2e2d34520" x="252.034943" y="214.927988" style="fill: #1f77b4; stroke: #1f77b4"/>
     <use xlink:href="#mf2e2d34520" x="260.912216" y="221.772486" style="fill: #1f77b4; stroke: #1f77b4"/>
     <use xlink:href="#mf2e2d34520" x="269.789489" y="227.138121" style="fill: #1f77b4; stroke: #1f77b4"/>
     <use xlink:href="#mf2e2d34520" x="278.666761" y="231.225067" style="fill: #1f77b4; stroke: #1f77b4"/>
     <use xlink:href="#mf2e2d34520" x="287.544034" y="234.201951" style="fill: #1f77b4; stroke: #1f77b4"/>
     <use xlink:href="#mf2e2d34520" x="296.421307" y="236.200109" style="fill: #1f77b4; stroke: #1f77b4"/>
     <use xlink:href="#mf2e2d34520" x="305.29858" y="237.311568" style="fill: #1f77b4; stroke: #1f77b4"/>
     <use xlink:href="#mf2e2d34520" x="314.175852" y="237.588811" style="fill: #1f77b4; stroke: #1f77b4"/>
     <use xlink:href="#mf2e2d34520" x="323.053125" y="237.045071" style="fill: #1f77b4; stroke: #1f77b4"/>
     <use xlink:href="#mf2e2d34520" x="331.930398" y="235.654448" style="fill: #1f77b4; stroke: #1f77b4"/>
     <use xlink:href="#mf2e2d34520" x="340.80767" y="233.351695" style="fill: #1f77b4; stroke: #1f77b4"/>
     <use xlink:href="#mf2e2d34520" x="349.684943" y="230.03199" style="fill: #1f77b4; stroke: #1f77b4"/>
     <use xlink:href="#mf2e2d34520" x="358.562216" y="225.551578" style="fill: #1f77b4; stroke: #1f77b4"/>
     <use xlink:href="#mf2e2d34520" x="367.439489" y="219.730756" style="fill: #1f77b4; stroke: #1f77b4"/>
     <use xlink:href="#mf2e2d34520" x="376.316761" y="212.36133" style="fill: #1f77b4; stroke: #1f77b4"/>
     <use xlink:href="#mf2e2d34520" x="385.194034" y="203.221272" style="fill: #1f77b4; stroke: #1f77b4"/>
     <use xlink:href="#mf2e2d34520" x="394.071307" y="192.099528" style="fill: #1f77b4; stroke: #1f77b4"/>
     <use xlink:href="#mf2e2d34520" x="402.94858" y="178.833402" style="fill: #1f77b4; stroke: #1f77b4"/>
    </g>
   </g>
   <g id="line2d_15">
    <path d="M 47.85767 271.8 
L 402.94858 271.8 
" clip-path="url(#pb3926d2944)" style="fill: none; stroke: #d62728; stroke-width: 1.5; stroke-linecap: square"/>
   </g>
   <g id="patch_3">
    <path d="M 30.103125 284.4 
L 30.103125 7.2 
" style="fill: none; stroke: #000000; stroke-width: 0.8; stroke-linejoin: miter; stroke-linecap: square"/>
   </g>
   <g id="patch_4">
    <path d="M 420.703125 284.4 
L 420.703125 7.2 
" style="fill: none; stroke: #000000; stroke-width: 0.8; stroke-linejoin: miter; stroke-linecap: square"/>
   </g>
   <g id="patch_5">
    <path d="M 30.103125 284.4 
L 420.703125 284.4 
" style="fill: none; stroke: #000000; stroke-width: 0.8; stroke-linejoin: miter; stroke-linecap: square"/>
   </g>
   <g id="patch_6">
    <path d="M 30.103125 7.2 
L 420.703125 7.2 
" style="fill: none; stroke: #000000; stroke-width: 0.8; stroke-linejoin: miter; stroke-linecap: square"/>
   </g>
  </g>
 </g>
 <defs>
  <clipPath id="pb3926d2944">
   <rect x="30.103125" y="7.2" width="390.6" height="277.2"/>
  </clipPath>
 </defs>
</svg>
